<mxfile host="app.diagrams.net" modified="2023-11-30T07:35:12.348Z" agent="Mozilla/5.0 (Windows NT 10.0; Win64; x64) AppleWebKit/537.36 (KHTML, like Gecko) Chrome/119.0.0.0 Safari/537.36" version="22.1.5" etag="IKIyrqCmbAZXRIQGsXIJ" type="github">
  <diagram name="Halaman-1" id="7LCpdG6pk_axlhkMjGlr">
    <mxGraphModel>
      <root>
        <mxCell id="0" />
        <mxCell id="1" parent="0" />
      </root>
    </mxGraphModel>
  </diagram>
</mxfile>
